<svg id="Capa_1" enable-background="new 0 0 512 512" height="40" viewBox="0 0 512 512" width="40" xmlns="http://www.w3.org/2000/svg" fill="red"><g><path d="m109.01 373.983c-19.027 0-34.507 15.48-34.507 34.508 0 19.027 15.48 34.507 34.507 34.507 19.028 0 34.508-15.48 34.508-34.507 0-19.028-15.48-34.508-34.508-34.508zm0 54.015c-10.756 0-19.507-8.751-19.507-19.507 0-10.757 8.751-19.508 19.507-19.508 10.757 0 19.508 8.751 19.508 19.508 0 10.756-8.751 19.507-19.508 19.507z"/><path d="m397.37 373.983c-19.027 0-34.508 15.48-34.508 34.508 0 19.027 15.48 34.507 34.508 34.507s34.508-15.48 34.508-34.507c0-19.028-15.481-34.508-34.508-34.508zm0 54.015c-10.757 0-19.508-8.751-19.508-19.507 0-10.757 8.751-19.508 19.508-19.508s19.508 8.751 19.508 19.508c0 10.756-8.751 19.507-19.508 19.507z"/><path d="m360.396 178.883c-.003-10.791-8.785-19.57-19.576-19.57h-6.893c-10.794 0-19.576 8.782-19.576 19.576v68.614c0 10.794 8.782 19.576 19.576 19.576h6.916c5.23 0 10.147-2.037 13.846-5.736 3.697-3.699 5.732-8.617 5.73-13.847zm-16.315 71.856c-.865.865-2.015 1.341-3.237 1.341h-6.916c-2.523 0-4.576-2.053-4.576-4.576v-68.614c0-2.523 2.053-4.576 4.576-4.576h6.893c2.522 0 4.575 2.052 4.576 4.574l.023 68.616c.001 1.221-.475 2.371-1.339 3.235z"/><path d="m389.887 267.08h52.436c6.017 0 11.609-2.705 15.345-7.42 3.736-4.716 5.089-10.78 3.712-16.638l-16.138-68.613c-2.089-8.888-9.925-15.096-19.056-15.096h-36.329c-5.23 0-10.147 2.037-13.846 5.737-3.697 3.699-5.732 8.617-5.73 13.848l.03 68.615c.005 10.789 8.788 19.567 19.576 19.567zm-3.267-91.426c.864-.865 2.014-1.341 3.236-1.341h36.329c2.134 0 3.966 1.451 4.454 3.529l16.138 68.614c.44 1.875-.354 3.242-.868 3.889-.513.648-1.661 1.735-3.587 1.735h-52.436c-2.521 0-4.574-2.052-4.576-4.574l-.03-68.614c-.001-1.224.476-2.373 1.34-3.238z"/><path d="m348.457 278.69h-20.234c-4.143 0-7.5 3.358-7.5 7.5s3.357 7.5 7.5 7.5h20.234c4.143 0 7.5-3.358 7.5-7.5s-3.357-7.5-7.5-7.5z"/><path d="m119.206 310.489v-223.468c0-4.142-3.358-7.5-7.5-7.5s-7.5 3.358-7.5 7.5v223.467c0 4.142 3.358 7.5 7.5 7.5s7.5-3.357 7.5-7.499z"/><path d="m221.174 310.489v-223.468c0-4.142-3.358-7.5-7.5-7.5s-7.5 3.358-7.5 7.5v223.467c0 4.142 3.358 7.5 7.5 7.5s7.5-3.357 7.5-7.499z"/><path d="m501.47 359.8v-83.413c0-.578-.066-1.154-.199-1.717l-28.222-119.998c-3.748-15.865-17.737-26.945-34.019-26.945h-116.51c-5.164 0-10.015 1.351-14.229 3.711v-59.418c0-18.34-14.916-33.26-33.25-33.26h-224.701c-18.334 0-33.25 14.92-33.25 33.26v64.3c0 4.142 3.358 7.5 7.5 7.5s7.5-3.358 7.5-7.5v-64.3c0-10.069 8.187-18.26 18.25-18.26h224.7c10.063 0 18.25 8.191 18.25 18.26v271.727h-261.2v-177.727c0-4.142-3.358-7.5-7.5-7.5s-7.5 3.358-7.5 7.5v177.768c-9.493.428-17.09 8.262-17.09 17.859v35.92c0 9.875 8.03 17.91 17.9 17.91h26.748c3.496 32.426 31.022 57.758 64.362 57.758s60.866-25.333 64.362-57.758h159.631c3.496 32.428 31.025 57.763 64.367 57.763 33.16 0 60.562-25.069 64.292-57.25h33.372c9.355 0 16.966-7.611 16.966-16.966v-23.534c0-7.077-4.359-13.149-10.53-15.69zm-15-27.109h-16.599c-4.746 0-8.607-3.861-8.607-8.607s3.861-8.607 8.607-8.607h16.599zm-336.068 26.059h142.888v41.727h-120.049c-2.073-16.704-10.518-31.457-22.839-41.727zm-135.402 38.817v-35.92c0-1.599 1.301-2.9 2.9-2.9h6.632c.02 0 .039.003.058.003h43.028c-12.321 10.27-20.766 25.023-22.839 41.727h-26.879c-1.599 0-2.9-1.306-2.9-2.91zm94.01 60.668c-27.429 0-49.745-22.315-49.745-49.745 0-27.372 22.222-49.646 49.572-49.741h.346c27.35.094 49.572 22.369 49.572 49.741 0 27.43-22.316 49.745-49.745 49.745zm288.36.005c-27.433 0-49.75-22.318-49.75-49.75 0-13.389 5.25-25.953 14.782-35.377 2.946-2.912 2.974-7.661.062-10.606-2.914-2.946-7.663-2.973-10.606-.061-10.482 10.362-16.965 23.648-18.73 38.031h-24.838v-243.52c0-7.847 6.384-14.23 14.229-14.23h116.511c9.293 0 17.279 6.331 19.419 15.387l28.021 119.144v23.22h-16.599c-13.018 0-23.607 10.59-23.607 23.607s10.59 23.607 23.607 23.607h16.599v10.833h-47.978c-11.19-9.226-25.52-14.774-41.122-14.774-5.666 0-11.308.738-16.771 2.192-4.002 1.066-6.383 5.175-5.316 9.178s5.178 6.385 9.178 5.317c4.203-1.119 8.546-1.687 12.909-1.687 27.427 0 49.74 22.313 49.74 49.74 0 27.431-22.313 49.749-49.74 49.749zm99.63-59.216c0 1.084-.882 1.966-1.966 1.966h-33.372c-1.163-10.03-4.627-19.363-9.85-27.466h42.099c.02 0 .039.003.058.003s.038-.003.058-.003h1.006c1.084 0 1.966.882 1.966 1.966v23.534z"/></g></svg>