<svg enable-background="new 0 0 512 512" height="50" viewBox="0 0 512 512" width="50" xmlns="http://www.w3.org/2000/svg" fill="red"><g id="_x33_0_Delivery"><g><path d="m449.38 167.944c-5.32-10.242-14.46-17.581-25.148-20.674l-17.382-66.933c-7.882-30.453-35.375-51.724-66.857-51.724h-264.723c-38.079 0-69.058 30.979-69.058 69.056.004 249.64-.006-29.201.005 305.893 0 15.858 12.903 28.759 28.759 28.759h39.636c.129 1.421.215 2.838.45 4.266 3.817 23.257 22.701 42.18 45.925 46.012 33.368 5.5 62.65-18.453 65.543-50.278h139.106 7.766c2.649 28.595 26.732 51.066 55.977 51.066 29.274 0 53.38-22.47 56.032-51.066h19.119c22.752 0 41.26-18.511 41.26-41.263 0-54.434 0-86.235 0-104.08 0-6.53-1.58-13.073-4.579-18.945zm-432.761 170.563v-80.567h267.74v73.954h-249.434c-6.461 0-13.173 2.352-18.306 6.613zm58.651-299.486h264.722c26.741 0 50.087 18.061 56.785 43.928l16.282 62.702c-.104-.001-.205-.022-.31-.022h-87.114c-22.806 0-41.275 18.574-41.275 41.288v60.614h-267.741v-149.862c0-32.339 26.31-58.648 58.651-58.648zm47.414 433.306c-18.889-3.115-34.252-18.506-37.352-37.426-5.163-31.454 21.53-58.461 53.693-52.829 19.396 3.51 35.84 20.153 37.244 41.975 1.9 29.361-23.706 53.203-53.585 48.28zm175.58-50.415h-111.7c-.087-.959-.531-4.308-.539-4.355v.003c-3.509-21.297-19.353-40.229-43.423-45.397-34.374-7.128-65.027 17.059-68.079 49.75h-39.548c-10.118 0-18.351-8.233-18.351-18.351.127-45.027-.287-43.423.372-46.639 1.716-8.333 9.108-14.618 17.943-14.618h249.43v48.753c.001 11.862 5.305 23.219 13.895 30.854zm91.113 51.066c-25.271 0-45.832-20.584-45.833-45.888 0-.008.005-.015.005-.024 0-25.252 20.566-45.798 45.849-45.798s45.854 20.546 45.854 45.849c0 .019.01.036.011.055-.047 25.265-20.611 45.806-45.886 45.806zm75.152-51.066h-19.103c-.005-.051-.016-.1-.021-.151-2.645-27.932-26.433-50.912-56.027-50.912-28.208 0-53.263 21.529-55.998 51.063h-7.745c-17.014 0-30.857-13.841-30.857-30.855v-53.96-150.203c0-17.041 13.876-30.837 30.847-30.837h87.114c10.765 0 21.782 5.864 27.402 16.679l51.815 100.058c2.241 4.386 3.425 9.29 3.425 14.184v3.242c-15.56 2.505-27.498 15.989-27.498 32.247s11.938 29.742 27.498 32.247v36.343c0 17.015-13.838 30.855-30.852 30.855zm30.852-77.763c-9.793-2.35-17.09-11.18-17.09-21.682s7.298-19.332 17.09-21.682z"/><path d="m423.995 188.78c-3.562-6.774-10.514-10.982-18.147-10.982h-68.906c-11.251 0-20.404 9.155-20.404 20.406v69.576c0 11.251 9.152 20.406 20.404 20.406h104.911c15.307 0 25.145-16.219 18.117-29.8zm17.858 88.999h-104.911c-5.514 0-9.996-4.485-9.996-9.999v-69.576c0-5.514 4.482-9.999 9.996-9.999h68.906c3.756 0 7.176 2.073 8.914 5.382l35.965 69.581c3.385 6.545-1.22 14.611-8.874 14.611z"/><path d="m347.304 303.567h-21.669c-2.876 0-5.204 2.33-5.204 5.204s2.328 5.204 5.204 5.204h21.669c2.876 0 5.204-2.33 5.204-5.204s-2.327-5.204-5.204-5.204z"/><path d="m134.906 399.598c-18.783-2.891-34.761 13.07-31.879 31.876 1.809 11.818 11.312 21.341 23.118 23.161 18.813 2.899 34.822-13.115 31.919-31.919-1.819-11.806-11.343-21.312-23.158-23.118zm-7.176 44.751c-7.242-1.115-13.304-7.193-14.417-14.45-1.802-11.773 8.091-21.83 20.018-20.015 7.257 1.11 13.33 7.173 14.448 14.417 1.831 11.886-8.251 21.879-20.049 20.048z"/><path d="m389.393 399.26c-15.352 0-27.844 12.491-27.844 27.844 0 15.368 12.491 27.869 27.844 27.869 15.368 0 27.869-12.501 27.869-27.869 0-15.353-12.502-27.844-27.869-27.844zm0 45.305c-9.615 0-17.436-7.834-17.436-17.461 0-9.615 7.821-17.436 17.436-17.436 9.63 0 17.461 7.821 17.461 17.436 0 9.627-7.831 17.461-17.461 17.461z"/><path d="m396.462 215.328-36.854 36.854c-2.033 2.033-2.033 5.326 0 7.359s5.326 2.033 7.359 0l36.854-36.854c2.033-2.033 2.033-5.326 0-7.359-2.034-2.033-5.327-2.033-7.359 0z"/><path d="m377.135 213.803c2.033-2.033 2.033-5.326 0-7.359s-5.326-2.033-7.359 0l-17.766 17.766c-2.033 2.033-2.033 5.326 0 7.359s5.326 2.033 7.359 0z"/></g></g></svg>