<?xml version="1.0" encoding="UTF-8"?>
<svg xmlns="http://www.w3.org/2000/svg" id="Layer_3" data-name="Layer 3" viewBox="0 0 64 64" width="600" height="600"><path d="M2,57H12a48.764,48.764,0,0,1,1.455-11.821L16,35v-.128a38.714,38.714,0,0,0-4.727-18.539L10,14,3.268,45.135A56.142,56.142,0,0,0,2,57Z" style="fill:#f4b2b0"/><path d="M48,34.872V35l2.545,10.179A48.764,48.764,0,0,1,52,57H62a56.142,56.142,0,0,0-1.268-11.865L54,14l-1.273,2.333A38.714,38.714,0,0,0,48,34.872Z" style="fill:#f4b2b0"/><path d="M37.842,2H26.158a11.37,11.37,0,0,0-3.932.726,17.977,17.977,0,0,0,4.5,9.434L29.4,15.071,32,16l2.6-.929L37.27,12.16a17.977,17.977,0,0,0,4.5-9.434A11.37,11.37,0,0,0,37.842,2Z" style="fill:#f4b2b0"/><path d="M54.978,13.789a1,1,0,0,0-.463-.646L46.924,8.588A5.668,5.668,0,0,0,47,7.673a5.75,5.75,0,0,0-2.777-4.906A12.411,12.411,0,0,0,37.842,1H26.158a12.411,12.411,0,0,0-6.381,1.767A5.75,5.75,0,0,0,17,7.673a5.668,5.668,0,0,0,.076.915L9.485,13.143a1,1,0,0,0-.463.646L2.291,44.924A57.224,57.224,0,0,0,1,57a1,1,0,0,0,1,1H3v4a1,1,0,0,0,1,1h6a1,1,0,0,0,1-1V58h1a1,1,0,0,0,1-1,47.772,47.772,0,0,1,1.425-11.578l.575-2.3V56a3,3,0,0,0,2,2.816V62a1,1,0,0,0,1,1H30a1,1,0,0,0,1-1V59h2v3a1,1,0,0,0,1,1H46a1,1,0,0,0,1-1V58.816A3,3,0,0,0,49,56V43.123l.575,2.3A47.772,47.772,0,0,1,51,57a1,1,0,0,0,1,1h1v4a1,1,0,0,0,1,1h6a1,1,0,0,0,1-1V58h1a1,1,0,0,0,1-1,57.224,57.224,0,0,0-1.291-12.076ZM45,7.673a3.73,3.73,0,0,1-2.47,3.5l-4.47,1.6a18.92,18.92,0,0,0,4.479-8.627c.219.111.443.208.654.335A3.74,3.74,0,0,1,45,7.673ZM37.842,3a10.4,10.4,0,0,1,2.807.388,16.927,16.927,0,0,1-4.116,8.1l-2.5,2.728L32,14.938l-2.032-.726-2.5-2.728a16.927,16.927,0,0,1-4.116-8.1A10.4,10.4,0,0,1,26.158,3ZM20.807,4.482c.211-.127.435-.224.654-.335a18.92,18.92,0,0,0,4.479,8.627l-4.47-1.6a3.721,3.721,0,0,1-.663-6.695Zm-.01,8.579,2.2.787V28h2V14.562L31,16.7V57H18a1,1,0,0,1-1-1V34.873a39.828,39.828,0,0,0-4.85-19.019l-.812-1.49L17.77,10.5A5.713,5.713,0,0,0,20.8,13.061ZM9,61H5V58H9Zm3.485-16.063A49.808,49.808,0,0,0,11.01,56h-8A55.245,55.245,0,0,1,4.246,45.347L10.409,16.84A37.827,37.827,0,0,1,15,34.873v0ZM29,61H19V59H29Zm6,0V59H45v2Zm12-5a1,1,0,0,1-1,1H33V16.7l6-2.143V28h2V13.848l2.2-.787A5.713,5.713,0,0,0,46.23,10.5l6.432,3.86-.812,1.49A39.828,39.828,0,0,0,47,34.873V56Zm4.515-11.063L49,34.876v0A37.827,37.827,0,0,1,53.591,16.84l6.163,28.507A55.245,55.245,0,0,1,60.991,56h-8A49.808,49.808,0,0,0,51.515,44.937ZM59,61H55V58h4Z" style="fill:#b3404a"/></svg>
